# xmcd CD database file
#
# Track frame offsets:
#	150
#	34837
#	77648
#	92655
#	97526
#	146072
#	195038
#	208701
#	261790
#	297174
#
# Disc length: 4128 seconds
#
# Revision: 0
# Processed by: cddbd v1.5.1PL0 Copyright (c) Steve Scherf et al.
# Submitted via: CDex 1.50
#
DISCID=7c101e0a
DTITLE=Charles Mingus and The Jazz Workshop All Stars - The Complete Birdland Broadcasts [CD1]
DYEAR=2004
DGENRE=Jazz
TTITLE0=Blue Cee (10-21)
TTITLE1=Ecclusiastics 10-21
TTITLE2=Untitled 10-21
TTITLE3=Dead Air w/ Symphony Sid 3-24
TTITLE4=Take the "A" Train 3-24
TTITLE5=Fables of Faubus 3-24
TTITLE6=Eat That Chicken 3-24
TTITLE7=Monk, Funk or Vice Versa 3-31
TTITLE8=Oh Lord, Don't Let Them Drop That Atomic Bomb On Me... 3-31
TTITLE9=Eat That Chicken 3-31
EXTD=YEAR: 2004
EXTT0=
EXTT1=
EXTT2=
EXTT3=
EXTT4=
EXTT5=
EXTT6=
EXTT7=
EXTT8=
EXTT9=
PLAYORDER=
